<?xml version="1.0" standalone="no"?>
<!DOCTYPE svg PUBLIC "-//W3C//DTD SVG 20010904//EN"
 "http://www.w3.org/TR/2001/REC-SVG-20010904/DTD/svg10.dtd">
<svg version="1.0" xmlns="http://www.w3.org/2000/svg"
 width="128.000000pt" height="128.000000pt" viewBox="0 0 128.000000 128.000000"
 preserveAspectRatio="xMidYMid meet">
<metadata>
Created by potrace 1.11, written by Peter Selinger 2001-2013
</metadata>
<g transform="translate(0.000000,128.000000) scale(0.100000,-0.100000)"
fill="#000000" stroke="none">
<path d="M71 1273 c-19 -4 -21 -7 -10 -14 11 -7 10 -9 -6 -9 -11 0 -27 -5 -35
-11 -13 -9 -12 -10 2 -5 12 3 15 1 11 -9 -3 -8 -9 -13 -13 -10 -14 9 -17 -18
-18 -155 -1 -89 2 -130 8 -120 6 9 10 10 10 3 0 -6 -4 -14 -9 -18 -6 -3 -7
-15 -5 -28 8 -31 7 -39 -2 -61 -6 -15 -4 -17 7 -11 11 7 12 6 3 -6 -5 -8 -9
-25 -7 -39 6 -42 6 -44 -3 -64 -6 -15 -4 -17 7 -11 11 7 12 6 3 -6 -5 -8 -9
-25 -7 -39 6 -42 6 -44 -3 -64 -6 -15 -4 -17 7 -11 11 7 12 6 3 -6 -5 -8 -9
-25 -7 -39 6 -42 6 -44 -3 -64 -6 -15 -4 -17 7 -11 11 7 12 6 3 -6 -5 -8 -9
-25 -7 -39 6 -42 6 -44 -3 -64 -5 -13 -4 -17 4 -12 12 7 10 -13 -4 -48 -6 -15
-4 -17 7 -11 11 7 12 6 3 -6 -9 -11 -12 -112 -4 -129 1 -3 3 -18 3 -35 1 -18
7 -29 14 -28 7 2 10 -4 7 -12 -4 -8 -11 -12 -17 -8 -6 3 -7 1 -3 -5 4 -7 17
-12 29 -13 21 0 21 -1 2 -9 -18 -8 -18 -9 5 -10 14 -2 29 -2 33 -1 5 1 6 -3 2
-8 -3 -6 -13 -8 -23 -5 -14 5 -15 4 -2 -5 19 -13 1083 -14 1075 0 -4 5 -11 6
-17 3 -7 -4 -8 -2 -4 4 4 6 14 8 23 5 11 -4 14 -2 9 5 -4 6 2 20 13 31 19 19
19 21 3 31 -15 10 -14 11 4 7 22 -5 26 6 10 32 -6 10 -5 12 2 7 7 -4 12 -2 12
3 0 6 -5 11 -12 11 -6 0 -3 7 8 15 13 10 14 13 3 10 -9 -4 -16 0 -16 9 0 8 7
12 16 9 13 -4 12 -2 -2 10 -16 13 -16 15 -2 21 18 6 11 26 -8 26 -7 0 -6 -4 3
-10 9 -6 10 -10 3 -10 -20 0 -24 18 -6 29 17 10 17 10 1 11 -12 0 -15 5 -11
17 5 12 3 14 -8 8 -8 -5 -7 -1 4 12 22 25 22 34 0 26 -15 -5 -15 -3 2 11 11
10 15 15 8 12 -7 -4 -9 1 -5 16 3 13 1 19 -6 15 -5 -4 -9 -1 -8 5 1 7 5 14 10
15 14 2 25 25 19 40 -3 7 -9 11 -13 8 -5 -3 -12 0 -16 6 -4 8 -3 9 4 5 7 -4
13 -4 13 1 6 34 5 52 -1 48 -5 -3 -6 5 -2 17 3 14 2 19 -6 14 -19 -12 -14 2 9
23 15 14 17 21 8 26 -7 5 -10 4 -6 -2 3 -5 0 -10 -8 -10 -9 0 -11 4 -6 11 4 6
11 23 15 38 5 23 4 27 -11 21 -15 -5 -15 -3 2 11 11 10 15 15 8 12 -7 -4 -9 1
-5 16 3 13 1 19 -6 15 -6 -4 -9 0 -8 10 2 10 6 16 11 15 11 -5 24 19 18 35 -3
7 -9 11 -13 8 -5 -3 -12 0 -16 6 -4 8 -3 9 4 5 7 -4 13 -4 13 1 6 34 5 52 -1
48 -5 -3 -6 5 -2 17 3 14 2 19 -6 14 -19 -12 -14 2 9 23 15 14 17 21 8 26 -7
5 -10 4 -6 -2 3 -5 0 -10 -8 -10 -9 0 -11 4 -6 11 12 16 23 69 13 62 -5 -3 -9
1 -9 9 0 8 4 12 8 9 4 -2 10 0 14 6 6 9 -8 14 -28 11 -5 -1 -6 3 -2 9 3 5 14
10 23 11 10 0 12 3 5 5 -7 3 -9 12 -6 20 3 7 10 11 17 7 6 -4 3 5 -7 20 -10
15 -15 32 -12 37 3 6 -2 10 -11 10 -16 0 -16 1 2 16 10 8 13 12 5 8 -11 -5
-13 -3 -8 9 4 10 -1 22 -11 29 -9 7 -18 20 -20 28 -2 8 -12 24 -23 35 -19 19
-34 20 -517 21 -273 1 -508 -1 -521 -3z m1038 -26 c8 -10 7 -14 -4 -14 -8 0
-12 4 -9 8 2 4 -2 10 -8 12 -8 4 -9 6 -2 6 6 1 17 -5 23 -12z m66 -166 c3 -5
0 -13 -6 -17 -7 -4 -9 -3 -5 4 3 5 0 13 -6 15 -9 4 -10 6 -1 6 6 1 14 -3 18
-8z"/>
<path d="M1176 867 c3 -10 9 -15 12 -12 3 3 0 11 -7 18 -10 9 -11 8 -5 -6z"/>
<path d="M1171 713 c7 -12 15 -20 18 -17 3 2 -3 12 -13 22 -17 16 -18 16 -5
-5z"/>
<path d="M1176 547 c3 -10 9 -15 12 -12 3 3 0 11 -7 18 -10 9 -11 8 -5 -6z"/>
<path d="M1171 393 c7 -12 15 -20 18 -17 3 2 -3 12 -13 22 -17 16 -18 16 -5
-5z"/>
<path d="M1175 300 c3 -5 8 -10 11 -10 2 0 4 5 4 10 0 6 -5 10 -11 10 -5 0 -7
-4 -4 -10z"/>
</g>
</svg>
