<svg xmlns="http://www.w3.org/2000/svg" xmlns:xlink="http://www.w3.org/1999/xlink" version="1.1" x="0px" y="0px" viewBox="0 0 24 30" style="enable-background:new 0 0 24 24; fill: #fff;" xml:space="preserve"><g><path d="M21.811,18.37c-0.051-0.346-0.277-0.651-0.691-0.934l-4.348-2.975c-0.219-0.149-0.474-0.228-0.737-0.228   c-0.41,0-0.793,0.193-1.028,0.519l-1.129,1.598c-0.059,0.083-0.105,0.174-0.138,0.273c-0.09,0.029-0.23,0.059-0.418,0.059   c-0.644,0-1.746-0.335-3.344-1.932c-2.028-2.025-2.911-3.477-2.692-4.43c0.083-0.035,0.158-0.079,0.224-0.13l1.559-1.18   c0.542-0.409,0.649-1.206,0.236-1.776l-3.117-4.25C5.6,2.18,4.916,2.095,4.173,2.735c-0.477,0.41-1.268,1.396-1.595,1.989   C2.4,5.039,2.326,5.364,2.359,5.69C2.245,6.16,1.992,7.565,2.41,9.528c0.567,2.661,2.099,5.215,4.556,7.594   c4.107,3.974,7.713,4.568,9.496,4.568c1.055,0,1.787-0.194,2.118-0.335c0.306,0.01,0.617-0.073,0.917-0.252   c0.584-0.346,1.543-1.169,1.935-1.66C21.737,19.063,21.861,18.713,21.811,18.37z M20.909,19.022   c-0.342,0.428-1.243,1.201-1.755,1.504c-0.206,0.123-0.405,0.175-0.599,0.154l-0.101-0.011l-0.09,0.047   c-0.163,0.084-0.822,0.303-1.902,0.303c-1.682,0-5.092-0.569-9.03-4.379C1.816,11.202,2.884,6.333,3.025,5.796L3.042,5.73   l-0.01-0.068C3.002,5.463,3.046,5.259,3.164,5.051C3.452,4.529,4.195,3.6,4.61,3.243c0.198-0.171,0.369-0.257,0.508-0.257   c0.06,0,0.241,0,0.529,0.391l3.115,4.248c0.199,0.275,0.156,0.655-0.098,0.846L7.102,9.655C7.06,9.688,7.007,9.712,6.938,9.728   L6.764,9.769L6.701,9.937c-0.466,1.254,0.398,2.884,2.802,5.285c1.76,1.759,3.048,2.129,3.818,2.129   c0.474,0,0.767-0.138,0.871-0.197l0.142-0.081l0.024-0.161c0.01-0.069,0.032-0.128,0.066-0.175l1.128-1.597   c0.178-0.246,0.571-0.31,0.841-0.126l4.348,2.975c0.248,0.169,0.384,0.33,0.406,0.478C21.168,18.613,21.089,18.799,20.909,19.022z"/><path d="M11.519,6.871c2.699,0.824,4.811,2.925,5.649,5.62c0.045,0.144,0.177,0.236,0.32,0.236c0.033,0,0.066-0.005,0.1-0.015   c0.177-0.055,0.276-0.243,0.221-0.42c-0.904-2.907-3.183-5.173-6.094-6.062c-0.178-0.054-0.365,0.046-0.419,0.223   C11.242,6.63,11.342,6.817,11.519,6.871z"/><path d="M11.996,4.289c4.046,0.957,7.139,4.217,7.88,8.306c0.029,0.162,0.171,0.276,0.33,0.276c0.02,0,0.04-0.002,0.06-0.005   c0.182-0.033,0.303-0.208,0.27-0.39c-0.789-4.352-4.08-7.821-8.386-8.839c-0.183-0.044-0.361,0.069-0.404,0.249   C11.705,4.065,11.816,4.246,11.996,4.289z"/></g><text x="0" y="39" fill="#fff" font-size="5px" font-weight="bold" font-family="'Helvetica Neue', Helvetica, Arial-Unicode, Arial, Sans-serif">Created by AlePio</text><text x="0" y="44" fill="#fff" font-size="5px" font-weight="bold" font-family="'Helvetica Neue', Helvetica, Arial-Unicode, Arial, Sans-serif">from the Noun Project</text></svg>